<?xml version="1.0" encoding="UTF-8" standalone="no"?>
<svg
   xmlns:dc="http://purl.org/dc/elements/1.1/"
   xmlns:cc="http://creativecommons.org/ns#"
   xmlns:rdf="http://www.w3.org/1999/02/22-rdf-syntax-ns#"
   xmlns:svg="http://www.w3.org/2000/svg"
   xmlns="http://www.w3.org/2000/svg"
   xmlns:sodipodi="http://sodipodi.sourceforge.net/DTD/sodipodi-0.dtd"
   xmlns:inkscape="http://www.inkscape.org/namespaces/inkscape"
   viewBox="0 0 576 512"
   version="1.1"
   id="svg4"
   sodipodi:docname="address-card.svg"
   inkscape:version="0.92.4 (5da689c313, 2019-01-14)">
  <metadata
     id="metadata10">
    <rdf:RDF>
      <cc:Work
         rdf:about="">
        <dc:format>image/svg+xml</dc:format>
        <dc:type
           rdf:resource="http://purl.org/dc/dcmitype/StillImage" />
        <dc:title></dc:title>
      </cc:Work>
    </rdf:RDF>
  </metadata>
  <defs
     id="defs8" />
  <sodipodi:namedview
     pagecolor="#ffffff"
     bordercolor="#666666"
     borderopacity="1"
     objecttolerance="10"
     gridtolerance="10"
     guidetolerance="10"
     inkscape:pageopacity="0"
     inkscape:pageshadow="2"
     inkscape:window-width="1920"
     inkscape:window-height="1001"
     id="namedview6"
     showgrid="false"
     inkscape:zoom="1.3037281"
     inkscape:cx="210.43392"
     inkscape:cy="272.87789"
     inkscape:window-x="-9"
     inkscape:window-y="-9"
     inkscape:window-maximized="1"
     inkscape:current-layer="svg4" />
  <path
     id="path2"
     d="M 64,32 C 28.7,32 0,60.7 0,96 v 320 c 0,35.3 28.7,64 64,64 h 448 c 35.3,0 64,-28.7 64,-64 V 96 C 576,60.7 547.3,32 512,32 Z m 0,32 h 448 c 17.6,0 32,14.4 32,32 v 320 c 0,17.6 -14.4,32 -32,32 H 64 C 46.4,448 32,433.6 32,416 V 96 C 32,78.4 46.4,64 64,64 Z m 145.22461,64.01562 c 3.89395,0.83714 7.91714,1.44005 11.67773,2.72657 3.1548,-0.008 6.31975,0.2398 9.46094,0.67383 0.12491,0.0173 1.27125,0.24582 2.0957,0.40429 -7.34043,-2.3532 -15.13903,-3.68324 -23.23437,-3.80469 z m -16.75977,5.60157 c 0.3026,0.15099 0.6053,0.29715 0.90821,0.45508 0.44397,0.23146 0.89789,0.48192 1.35742,0.74218 0.01,-0.33318 0.0207,-0.66851 0.0391,-1.02539 -0.76787,-0.0676 -1.53616,-0.12621 -2.30469,-0.17187 z m 47.50977,1.04297 c 0.55982,0.61321 0.96982,1.45478 1.19727,2.83398 0.45609,2.76572 -0.87958,2.77059 -1.21094,4.71875 -0.12099,0.71135 -0.0739,1.44206 -0.14453,2.16016 -0.12385,1.25938 -0.29266,2.51262 -0.43946,3.76953 -1.33707,3.5157 -1.61633,5.62764 -4.6914,8.15234 -2.99381,2.45798 -5.49108,2.98807 -8.875,3.51367 -0.13339,0.23303 -0.26175,0.47448 -0.39844,0.70118 -0.45774,0.75913 -0.95204,1.49443 -1.46484,2.21679 0.9936,0.35025 1.97505,0.72607 2.9375,1.13867 4.87544,-0.99599 10.04251,-1.96995 14.32226,-2.31445 2.20063,-0.17713 4.41538,0.0383 6.62305,0.0566 1.28819,0.28536 2.69134,0.24933 3.86328,0.85547 8.58632,4.44086 -2.35365,11.97579 -6.20508,14.04883 -0.29395,0.15822 -0.59681,0.29856 -0.89453,0.44922 1.90136,2.23918 3.59369,4.65921 5.06445,7.22265 0.0434,-0.8973 0.0899,-1.79479 0.14453,-2.6914 0.0553,-0.90862 -0.53899,-2.31796 0.2793,-2.7168 2.23426,-1.089 4.92456,-0.68139 7.38672,-1.02148 0.0309,0.60837 0.0724,1.21598 0.10547,1.82421 0.0457,0.004 0.091,-7.6e-4 0.13672,0.004 0.53745,0.0549 0.20085,0.80198 -0.0488,1.49609 0.28084,4.91922 0.61411,9.83597 0.97461,14.75 0.16231,-8.94216 0.41638,-22.66645 0.56445,-25.91406 0.21438,-4.70211 0.5859,-9.39684 0.9961,-14.08594 0.15678,-1.79227 0.46629,-4.68891 0.8164,-7.72265 -6.22576,-5.51103 -13.31126,-10.07329 -21.03906,-13.44531 z m -37.57031,0.0625 c -0.003,0.09 -0.007,0.17872 -0.01,0.26757 0.15141,-0.0671 0.30867,-0.13279 0.46094,-0.19921 -0.15038,-0.0225 -0.30079,-0.0462 -0.45117,-0.0684 z m -28.42383,0.98828 c -0.32915,0.10602 -0.64959,0.22725 -0.97461,0.33984 -0.95896,0.46756 -1.90677,0.95467 -2.84375,1.45899 1.29886,1.18417 2.51517,2.46704 3.90039,3.54882 3.37895,2.63878 6.32391,4.48351 9.85352,6.23438 0.60378,-0.22089 1.12742,-0.41907 1.60742,-0.60547 1.06887,-0.94421 2.16728,-1.8584 3.2539,-2.7793 0.86357,-0.73185 1.73243,-1.45952 2.60938,-2.17773 -0.39439,-0.22733 -0.79344,-0.46306 -1.17383,-0.66797 -5.35671,-2.88551 -10.59851,-4.39818 -16.23242,-5.35156 z m 45.76367,2.69336 c -2.83434,0.072 -5.65547,0.40385 -8.42187,1.14062 -2.49647,1.03681 -5.24665,2.09838 -7.81055,3.35352 0.38607,0.82645 0.72387,1.68246 1.13086,2.49609 0.79529,2.66554 0.36123,5.09691 -0.0957,7.62695 0.13223,0.0405 0.30377,0.0954 0.44335,0.13868 1.60553,0.0898 3.23942,0.16628 4.98633,0.26562 7.48782,-0.28198 6.27661,-0.13285 10.77735,-0.66992 1.09581,-2.45723 2.12707,-5.19311 2.55273,-7.13477 0.37336,-1.70309 -0.15271,-2.6776 0.48047,-3.99023 0.60992,-0.49198 0.50368,-0.26838 -0.80859,-1.3125 -1.1731,-0.93338 -2.0801,-1.46406 -3.23438,-1.91406 z m 11.27148,0.8789 c 0.11362,0.40566 0.22097,0.81246 0.25391,1.23047 0.0648,0.82208 -0.0481,1.64734 -0.0937,2.47071 -0.0584,1.05613 0.006,2.13195 -0.2168,3.16601 -0.30894,1.4347 -0.7102,2.91338 -1.17382,4.39258 0.29546,-0.26392 0.57307,-0.5645 0.82617,-0.91992 0.50876,-0.71444 0.76443,-1.57966 1.14648,-2.36914 0.15717,-1.34566 0.70129,-6.26777 0.98828,-7.61524 -0.57552,-0.12558 -1.15226,-0.24575 -1.73047,-0.35547 z m 3.15235,0.66016 c 1.43943,2.36025 1.02167,0.7575 0.89062,0.18945 -0.29778,-0.0582 -0.59368,-0.12635 -0.89062,-0.18945 z m -70.71289,1.61133 c -5.58203,3.75208 -10.6665,8.1837 -15.13086,13.18554 6.24414,-2.7675 12.70203,-4.3212 20.1875,-4.94726 1.45828,-0.12197 2.87203,-0.17756 4.26953,-0.20703 -1.04598,-0.71519 -2.07293,-1.44617 -3.0625,-2.20508 -1.66786,-1.2791 -3.14039,-2.79453 -4.71094,-4.19141 -0.2687,-0.28481 -0.94331,-0.98956 -1.55273,-1.63476 z m 34.10156,6.6582 c -1.12841,1.0398 -2.376,1.95582 -3.69922,2.76953 1.05642,0.13235 2.30816,0.29695 3.0586,0.38867 0.11375,-0.98398 -0.18961,1.79826 0.60156,-1.79882 0.0797,-0.36216 0.0637,-0.73994 0.0957,-1.10938 -0.0241,-0.0808 -0.037,-0.1671 -0.0566,-0.25 z m -20.99219,9.44922 c -4.39747,1.26699 -8.86643,2.46964 -11.58203,3.22461 -7.36086,1.71484 -14.66182,3.77145 -22.02539,5.52344 -0.2508,0.17088 -0.49309,0.35434 -0.73828,0.5332 2.0412,3.38346 4.24655,6.66628 6.41797,9.96875 0.71455,-0.32503 1.43628,-0.6434 2.16797,-0.95508 0.0662,-0.0808 0.14805,-0.1637 0.20703,-0.24414 1.17391,-1.60093 1.48313,-3.47509 1.62695,-5.42578 0.27914,-3.78634 2.28548,-5.68207 4.17774,-5.68359 1.89225,-0.002 3.67003,1.89115 3.49218,5.68359 -0.0348,0.74247 -0.1057,1.4731 -0.20507,2.19531 3.526,-1.15062 7.12714,-2.16303 10.7207,-3.00976 0.75978,-2.0947 1.66885,-4.13465 2.49414,-6.20508 1.21619,-2.09332 2.22242,-3.88405 3.24609,-5.60547 z m 9.03321,0.18359 c -1.89982,2.58124 -3.27657,5.12624 -5.16211,8.28711 -0.27945,0.687 -0.42259,1.02288 -0.64258,1.55274 0.96036,-0.15552 1.92692,-0.32181 2.87109,-0.45117 0.001,-2e-4 0.003,1.8e-4 0.004,0 3.88434,-2.42177 8.14046,-4.29887 12.66211,-5.53516 0.28089,-0.67553 0.49453,-1.29937 0.625,-1.87695 -0.7937,-0.16169 -1.59963,-0.34234 -2.42969,-0.5625 -1.12473,-0.29832 -2.24727,-0.63859 -3.36719,-1.00782 -1.54261,-0.13154 -3.05932,-0.27217 -4.56054,-0.40625 z M 360,160 c -4.4,0 -8,3.6 -8,8 v 16 c 0,4.4 3.6,8 8,8 h 112 c 4.4,0 8,-3.6 8,-8 v -16 c 0,-4.4 -3.6,-8 -8,-8 z m -85.89844,2.94336 c -0.0222,0.32744 -0.0387,0.65506 -0.0625,0.98242 0.19523,1.18391 0.39303,2.36716 0.58985,3.55078 0.62364,-0.24945 1.2376,-0.54255 1.84961,-0.84375 -0.75902,-1.25335 -1.55227,-2.48241 -2.37696,-3.68945 z m 0.87696,5.04883 c -0.0357,0.0221 -0.0579,0.88613 0.18359,1.00586 -0.063,-0.31596 -0.12973,-0.63209 -0.16797,-0.95117 -0.005,-0.0413 -0.0102,-0.058 -0.0156,-0.0547 z m -32.0586,1.13086 c -0.2095,0.007 -0.41965,0.005 -0.6289,0.0215 -1.61898,0.1282 -3.40571,0.37453 -5.23829,0.66016 0.61595,0.46932 1.22043,0.95326 1.8125,1.45117 0.79302,-0.35263 1.58098,-0.71606 2.35157,-1.11524 0.58795,-0.30456 1.14968,-0.65298 1.70312,-1.01757 z m -106.2539,3.41406 c -0.15053,1.3677 -0.32044,2.7309 -0.66016,4.05664 0.49851,0.0885 0.99841,0.166 1.5,0.23047 0.51826,0.0666 1.35594,0.13537 2.03906,0.20312 -0.9739,-1.48772 -1.93888,-2.98158 -2.8789,-4.49023 z m 146.44531,7.89844 c 0.0201,3.34794 0.0217,5.30846 0.0234,12.69922 0.22146,4.13563 0.34909,8.27684 0.66601,12.40625 0.53608,6.98489 1.3243,13.95704 2.04883,20.93359 C 287.25113,220.54405 288,214.36048 288,208 c 0,-9.69128 -1.73427,-18.97168 -4.88867,-27.56445 z m -151.25586,3.01757 c -0.23345,0.72336 -0.45665,1.45143 -0.66992,2.1836 0.64121,0.042 1.24721,0.0796 1.82031,0.11133 0.33342,-0.15358 0.66782,-0.30242 1.00195,-0.45117 0.18424,-0.15506 0.37435,-0.30387 0.55664,-0.46094 0.29847,-0.17483 0.59182,-0.35931 0.88867,-0.53711 -0.87176,-0.1485 -1.73903,-0.3197 -2.59765,-0.54297 -0.31535,-0.082 -0.65397,-0.18389 -1,-0.30274 z m 31.45508,7.07227 c -1.82799,0.36683 -3.66366,0.69386 -5.50586,0.98828 0.39492,0.73439 -0.23078,-0.39436 1.27929,2.33594 0.2722,0.43311 0.54793,0.86472 0.82227,1.29687 0.67048,-0.19679 1.34336,-0.38248 2.01953,-0.55273 0.40201,-1.38309 0.86476,-2.73975 1.38477,-4.06836 z m -13.76953,2.23633 c -0.28316,0.0329 -0.56635,0.0668 -0.84961,0.0977 -0.80638,0.87979 -1.67644,1.82589 -1.82618,2.00585 -0.49158,0.5909 -0.92442,1.22968 -1.38671,1.84375 -0.21591,0.51739 -0.5326,1.00225 -0.64844,1.55079 -0.0771,0.36525 0.086,0.74387 0.084,1.11718 -0.003,0.59465 -0.031,1.19033 -0.0977,1.78125 -0.0705,0.6258 -0.17605,1.24285 -0.28321,1.85938 0.28518,-0.2651 0.57774,-0.52193 0.88282,-0.76563 2.18441,-1.74497 4.6561,-3.12606 7.18945,-4.32226 -0.0839,-0.1345 -0.17025,-0.26774 -0.25391,-0.40235 -3.69486,-6.86467 -1.39827,-2.82642 -2.81054,-4.76562 z m -10.95508,0.7207 c -0.8861,0.0104 -1.77245,0.025 -2.65821,0.01 -1.73739,1.3292 -3.45099,2.68217 -4.95507,4.26172 -0.91719,0.9632 -1.80827,2.07068 -2.66602,3.25195 C 128.10621,203.31013 128,205.64304 128,208 c 0,0.73794 0.0114,1.4739 0.0312,2.20703 2.34952,0.0548 4.66737,0.0969 6.88867,0.125 0.10748,-0.63965 0.23647,-1.27811 0.41406,-1.91601 0.69553,-2.52666 1.53369,-5.09038 1.82422,-7.70899 0.25881,-2.33274 -0.0729,-3.20571 0.7461,-5.74219 0.16758,-0.51901 0.41528,-1.00417 0.68164,-1.48242 z m 18.12109,10.95117 c -2.01986,0.86896 -3.99432,1.8842 -5.7832,3.15821 -0.59593,0.42441 -1.13458,0.91802 -1.65821,1.42968 3.25877,-0.30355 6.51927,-0.57698 9.78126,-0.84179 -0.77504,-1.25172 -1.55198,-2.50186 -2.33985,-3.7461 z m -21.9668,13.6875 c -2.03056,0.21066 -4.03259,0.43651 -6.01367,0.67774 0.009,0.0672 0.0201,0.13399 0.0293,0.20117 1.79186,-0.22231 3.74902,-0.50804 5.99023,-0.80273 z m 19.88282,4.49219 c -1.57242,0.24237 -2.65888,0.39884 -5.00977,0.7793 -1.91028,0.30915 -3.81589,0.64683 -5.7207,0.98828 3.47243,-0.32643 6.9402,-0.71156 10.4043,-1.12109 0.0953,-0.21744 0.21658,-0.43116 0.32617,-0.64649 z M 360,224 c -4.4,0 -8,3.6 -8,8 v 16 c 0,4.4 3.6,8 8,8 h 112 c 4.4,0 8,-3.6 8,-8 v -16 c 0,-4.4 -3.6,-8 -8,-8 z m -225.14844,1.91797 c -1.69381,0.23236 -3.19973,0.44116 -4.66797,0.62891 1.30677,5.50694 3.16781,10.79898 5.54688,15.79882 0.5652,0.0203 1.13009,0.0447 1.69531,0.0645 0.61938,-1.2351 1.36279,-2.37648 2.48633,-3.56641 -0.047,-0.0923 -0.0672,-0.14141 -0.11914,-0.24023 0.0308,0.0484 0.0936,0.13708 0.14453,0.21289 0.0194,-0.0204 0.0331,-0.0401 0.0527,-0.0605 -0.32959,-0.38645 -0.73003,-0.87693 -1.36523,-1.71289 -0.41811,-0.96001 -0.92117,-1.88417 -1.28711,-2.86524 -0.18829,-0.5048 -0.34318,-1.02611 -0.48437,-1.55468 -0.63812,-0.052 -1.69984,0.38794 -1.86133,-0.2168 -0.55821,-2.0904 -0.12978,-4.31303 -0.14063,-6.48828 z m 116.38672,2.89453 c -2.82918,5.85359 -6.80179,11.05303 -11.64258,15.29102 1.69039,-0.0738 3.18454,-0.079 4.54297,0.2832 1.11055,-0.23915 2.46817,-0.97415 3.03321,-0.125 0.34453,0.51781 -0.59319,0.56732 -1.47071,0.73828 1.61191,0.87035 3.11464,2.48305 4.72071,5.42773 0.84227,1.5443 -4.20055,1.61683 -5.95118,1.64649 0.0973,0.0396 0.1969,0.0718 0.29297,0.11523 1.13605,0.51328 3.12818,1.21595 2.84375,2.42969 -1.00918,4.30657 -2.17589,5.2722 -3.8164,5.64258 -4.9e-4,0.005 -9.6e-4,0.008 -0.002,0.0137 1.79698,0.0539 3.59429,0.0989 5.39063,0.16406 1.29431,0.0469 2.78476,0.10559 4.35156,0.17774 -0.18239,-2.29601 -0.35006,-4.59157 -0.52344,-6.87305 -0.18298,-2.40787 -0.33989,-4.81832 -0.49023,-7.22852 -2.09196,-0.16547 -3.93756,-2.62747 -3.08399,-6.71484 0.5872,-2.81177 1.27905,-5.59473 2.00586,-8.36914 z m -97.95117,2.2832 c -2.85865,0.33014 -5.71963,0.64299 -8.58399,0.91407 0.28107,0.66645 0.65551,1.29115 0.94727,1.95312 -0.0322,-0.0459 -0.0683,-0.0895 -0.10156,-0.13477 0.0825,0.19045 0.16941,0.37791 0.25195,0.56836 0.10447,-0.0581 0.21129,-0.11117 0.31641,-0.16796 0.0175,-0.0825 0.0528,-0.0971 0.10156,-0.0527 2.24416,-1.20144 4.62697,-2.11846 7.08984,-2.80859 -0.009,-0.0909 -0.013,-0.18072 -0.0215,-0.27149 z m 119.17969,0.45508 c 0.12656,7.93574 0.15957,15.87025 0.006,23.79688 0.55568,-0.75547 1.10532,-1.51563 1.63476,-2.29102 -0.0669,-0.57084 -0.11914,-1.05355 -0.24414,-1.94922 -0.0995,-6.55076 -0.64542,-13.06388 -1.39648,-19.55664 z m -129.36328,3.12695 c -1.24383,0.11462 -0.9698,0.71121 -0.11719,1.51563 0.68858,-0.50039 1.39599,-0.96427 2.12109,-1.39453 -0.26205,-0.0567 -0.54206,-0.0993 -0.85937,-0.11914 -0.47365,-0.0296 -0.85061,-0.029 -1.14453,-0.002 z m 26.61718,2.26368 c -2.50363,0.0416 -4.9718,0.15933 -7.42968,0.45117 0.20052,1.0873 0.40104,2.17442 0.60156,3.26172 0.0263,0.47439 0.0751,0.94946 0.11523,1.42382 0.45128,0.0247 0.90224,0.0496 1.35352,0.0742 3.36594,0.11321 6.71742,0.16041 10.07031,0.12696 -1.69614,-1.66138 -3.27513,-3.44179 -4.71094,-5.33789 z m -14.97851,1.99414 c -1.01112,0.30621 -2.02468,0.65266 -3.04492,1.05664 -1.57731,0.62455 -3.13416,1.38127 -4.47852,2.41601 -0.11752,0.0905 -0.2308,0.19705 -0.3457,0.29688 2.85599,0.0869 5.71212,0.17309 8.56836,0.25195 -0.002,-0.0891 0.008,-0.17885 0.002,-0.26758 -0.0295,-0.47124 -0.12989,-0.93668 -0.19531,-1.40429 -0.15404,-0.77823 -0.3296,-1.56337 -0.50586,-2.34961 z m 6.22265,2.75976 c -0.24259,-0.10026 0.48152,0.20688 0.72266,0.31055 0.0456,0.002 0.0911,0.005 0.13672,0.008 -0.23065,-0.0843 -0.4505,-0.14938 -0.85938,-0.31836 z m -18.14257,8.56446 c -0.0135,0.26816 -0.0276,0.53321 -0.0488,0.79296 1.64837,-0.23128 3.29824,-0.44655 4.94922,-0.64843 -1.63331,-0.049 -3.26719,-0.0921 -4.90039,-0.14453 z m 55.21875,19.91601 c -0.60704,0.39024 -1.22391,0.76283 -1.86914,1.08399 1.52964,-0.1405 3.52004,-0.3638 6.3125,-0.71875 -1.48094,-0.12457 -2.96242,-0.24005 -4.44336,-0.36524 z m 56.74023,2.32031 c -4.32,0.21788 -8.6496,0.27128 -12.97461,0.24805 -2.25093,-0.0121 -4.50029,-0.0515 -6.74805,-0.11523 -1.08328,0.73879 -2.24733,1.38364 -3.47461,2.00976 -0.75281,0.84707 -1.9836,1.51805 -3.71484,1.80274 -0.25001,0.11916 -0.47028,0.22712 -0.72461,0.34961 -2.98849,0.77153 -7.9159,2.85705 -11.21289,1.87304 -0.70321,-0.20987 -1.4343,-0.47732 -2.03711,-0.90039 1.29776,0.77362 2.28604,1.82084 2.5957,3.30664 2.66581,0.31177 5.3379,0.55198 8.01758,0.70117 0.64269,-0.007 1.28499,-0.0215 1.92774,-0.0254 1.73211,-0.0103 3.46526,9.8e-4 5.19726,0.0234 0.76812,0.01 2.21025,-0.68839 2.30274,0.0742 0.0749,0.61744 0.0467,1.23206 -0.0215,1.8457 7.54514,-2.58095 14.57692,-6.25574 20.91406,-10.83789 -0.0172,-0.1182 -0.03,-0.23719 -0.0469,-0.35547 z m -40.88672,5.26758 c -0.20093,-0.14102 -0.38791,-0.29956 -0.55469,-0.47851 -0.14245,-0.15286 -0.26966,-0.32828 -0.38476,-0.51368 -0.28243,0.0492 -0.56479,0.0976 -0.84766,0.14454 0.63351,0.2416 1.23706,0.51976 1.78711,0.84765 z m -32.3457,5.02539 c -0.43434,0.0464 -1.06264,0.12014 -1.53906,0.17188 0.4991,0.18632 1.00403,0.35856 1.50781,0.53515 0.92543,-0.0761 1.79284,-0.15885 2.73437,-0.23047 -0.90116,-0.16579 -1.80216,-0.31702 -2.70312,-0.47656 z M 360,288 c -4.4,0 -8,3.6 -8,8 v 16 c 0,4.4 3.6,8 8,8 h 112 c 4.4,0 8,-3.6 8,-8 v -16 c 0,-4.4 -3.6,-8 -8,-8 z m -198.80078,16 c -21.2,0 -41.79883,9.40039 -53.79883,27.40039 -7.2,10.7 -11.40039,23.6 -11.40039,37.5 V 392 c 0,4.4 3.6,8 8,8 h 16 c 4.4,0 8,-3.6 8,-8 v -23.09961 c 0,-7 2.1,-13.79961 6,-19.59961 5.6,-8.3 15.80078,-13.20117 27.30078,-13.20117 12.4,0 20.79883,7 46.79883,7 25.9,0 34.30078,-7 46.80078,-7 11.5,0 21.69883,5.00117 27.29883,13.20117 3.9,5.8 6,12.59961 6,19.59961 V 392 c 0,4.4 3.6,8 8,8 h 16 c 4.4,0 8,-3.6 8,-8 v -23.09961 c 0,-13.9 -4.19844,-26.8 -11.39844,-37.5 -10.35335,-15.15124 -26.58783,-24.20762 -44.05078,-26.69531 -0.1127,0.63835 -0.21306,1.27823 -0.33008,1.91601 -0.1072,0.003 -0.21481,0.0143 -0.32226,0.0195 0.0607,0.25053 0.0902,0.44875 -0.0859,0.39258 -0.30613,-0.0976 -0.60756,-0.2058 -0.90625,-0.32226 -2.27308,0.21763 -4.57763,0.70349 -6.76172,0.13672 -0.74096,-0.19228 -0.0117,-1.53844 0.10547,-2.29493 0.0274,-0.17706 0.0624,-0.35256 0.0918,-0.52929 -0.57962,-0.0142 -1.15971,-0.0234 -1.74024,-0.0234 -19.5,0 -24.40078,7 -46.80078,7 -22.4,0 -27.30078,-7 -46.80078,-7 z" />
  <rect
     style="opacity:1;fill:#ffffff;fill-opacity:1"
     id="rect40"
     width="193.29184"
     height="197.12698"
     x="101.2481"
     y="106.24055" />
  <rect
     style="opacity:1;fill:#ffffff;fill-opacity:1"
     id="rect42"
     width="261.55759"
     height="133.46341"
     x="71.333893"
     y="292.62912" />
  <path
     inkscape:connector-curvature="0"
     d="m 180.43555,166.13281 v 21.90286 c 0,3.62876 -2.9421,6.57086 -6.57085,6.57086 h -21.90287 c -3.62875,0 -6.57086,-2.9421 -6.57086,-6.57086 v -21.90286 c 0,-3.62876 2.94211,-6.57086 6.57086,-6.57086 h 21.90287 c 3.62875,0 6.57085,2.9421 6.57085,6.57086 z m 63.5183,-6.57086 h -21.90286 c -3.62876,0 -6.57086,2.9421 -6.57086,6.57086 v 21.90286 c 0,3.62876 2.9421,6.57086 6.57086,6.57086 h 21.90286 c 3.62876,0 6.57086,-2.9421 6.57086,-6.57086 v -21.90286 c 0,-3.62876 -2.9421,-6.57086 -6.57086,-6.57086 z m -70.08915,52.56686 h -21.90287 c -3.62875,0 -6.57086,2.9421 -6.57086,6.57087 v 21.90285 c 0,3.62876 2.94211,6.57086 6.57086,6.57086 h 21.90287 c 3.62875,0 6.57085,-2.9421 6.57085,-6.57086 v -21.90285 c 0,-3.62877 -2.9421,-6.57087 -6.57085,-6.57087 z m 70.08915,0 h -21.90286 c -3.62876,0 -6.57086,2.9421 -6.57086,6.57087 v 21.90285 c 0,3.62876 2.9421,6.57086 6.57086,6.57086 h 21.90286 c 3.62876,0 6.57086,-2.9421 6.57086,-6.57086 v -21.90285 c 0,-3.62877 -2.9421,-6.57087 -6.57086,-6.57087 z m -70.08915,52.56688 h -21.90287 c -3.62875,0 -6.57086,2.9421 -6.57086,6.57085 v 21.90285 c 0,3.62877 2.94211,6.57087 6.57086,6.57087 h 21.90287 c 3.62875,0 6.57085,-2.9421 6.57085,-6.57087 v -21.90285 c 0,-3.62875 -2.9421,-6.57085 -6.57085,-6.57085 z m 70.08915,0 h -21.90286 c -3.62876,0 -6.57086,2.9421 -6.57086,6.57085 v 21.90285 c 0,3.62877 2.9421,6.57087 6.57086,6.57087 h 21.90286 c 3.62876,0 6.57086,-2.9421 6.57086,-6.57087 v -21.90285 c 0,-3.62875 -2.9421,-6.57085 -6.57086,-6.57085 z m 76.66001,112.25215 v 10.95143 H 75.301824 v -10.95143 c 0,-3.62875 2.942101,-6.57085 6.570859,-6.57085 h 10.95143 V 120.68437 c 0,-7.25806 5.883656,-13.14171 13.141717,-13.14171 h 183.98403 c 7.25806,0 13.14171,5.88365 13.14171,13.14171 v 249.69262 h 10.95144 c 3.62875,0 6.57085,2.9421 6.57085,6.57085 z m -35.04457,-6.57085 V 125.06494 H 110.3464 v 245.31205 h 70.08915 V 323.8334 c 0,-3.62875 2.94211,-6.57085 6.57086,-6.57085 h 21.90286 c 3.62876,0 6.57086,2.9421 6.57086,6.57085 v 46.54359 z"
     id="path2-7"
     style="stroke-width:0.54757154" />
</svg>
